<mxfile host="app.diagrams.net" agent="Mozilla/5.0 (Windows NT 10.0; Win64; x64) AppleWebKit/537.36 (KHTML, like Gecko) Chrome/135.0.0.0 Safari/537.36" version="26.2.10">
  <diagram name="Page-1" id="7e0a89b8-554c-2b80-1dc8-d5c74ca68de4">
    <mxGraphModel dx="1013" dy="503" grid="0" gridSize="10" guides="1" tooltips="1" connect="1" arrows="1" fold="1" page="1" pageScale="1" pageWidth="1100" pageHeight="850" background="none" math="0" shadow="0">
      <root>
        <mxCell id="0" />
        <mxCell id="1" parent="0" />
        <mxCell id="cwxz73lgNzCHPHYkA8Ay-8" value="" style="rounded=0;whiteSpace=wrap;html=1;strokeWidth=2;fontSize=16;" vertex="1" parent="1">
          <mxGeometry x="292" y="231" width="196" height="170" as="geometry" />
        </mxCell>
        <mxCell id="cwxz73lgNzCHPHYkA8Ay-2" style="edgeStyle=orthogonalEdgeStyle;rounded=0;orthogonalLoop=1;jettySize=auto;html=1;exitX=0;exitY=0.21666666666666667;exitDx=0;exitDy=3;exitPerimeter=0;endArrow=box;endFill=0;strokeWidth=2;fontSize=16;" edge="1" parent="1" source="cwxz73lgNzCHPHYkA8Ay-1">
          <mxGeometry relative="1" as="geometry">
            <mxPoint x="288" y="280.1095890410959" as="targetPoint" />
          </mxGeometry>
        </mxCell>
        <mxCell id="cwxz73lgNzCHPHYkA8Ay-3" style="edgeStyle=orthogonalEdgeStyle;rounded=0;orthogonalLoop=1;jettySize=auto;html=1;exitX=0;exitY=0.65;exitDx=0;exitDy=3;exitPerimeter=0;endArrow=box;endFill=0;strokeWidth=2;fontSize=16;" edge="1" parent="1" source="cwxz73lgNzCHPHYkA8Ay-1">
          <mxGeometry relative="1" as="geometry">
            <mxPoint x="288" y="331.8904109589041" as="targetPoint" />
          </mxGeometry>
        </mxCell>
        <mxCell id="cwxz73lgNzCHPHYkA8Ay-9" style="edgeStyle=orthogonalEdgeStyle;rounded=0;orthogonalLoop=1;jettySize=auto;html=1;exitX=1;exitY=0.5;exitDx=0;exitDy=-5;exitPerimeter=0;endArrow=none;startFill=0;strokeWidth=2;fontSize=16;" edge="1" parent="1" source="cwxz73lgNzCHPHYkA8Ay-1">
          <mxGeometry relative="1" as="geometry">
            <mxPoint x="438" y="306" as="targetPoint" />
          </mxGeometry>
        </mxCell>
        <mxCell id="cwxz73lgNzCHPHYkA8Ay-10" style="rounded=0;orthogonalLoop=1;jettySize=auto;html=1;endArrow=box;endFill=0;exitX=1;exitY=0.5;exitDx=0;exitDy=-5;exitPerimeter=0;strokeWidth=2;fontSize=16;" edge="1" parent="1" source="cwxz73lgNzCHPHYkA8Ay-1">
          <mxGeometry relative="1" as="geometry">
            <mxPoint x="438" y="311" as="sourcePoint" />
            <mxPoint x="492" y="306" as="targetPoint" />
          </mxGeometry>
        </mxCell>
        <mxCell id="cwxz73lgNzCHPHYkA8Ay-11" style="edgeStyle=elbowEdgeStyle;rounded=0;orthogonalLoop=1;jettySize=auto;html=1;entryX=0;entryY=0.75;entryDx=0;entryDy=0;elbow=vertical;endArrow=box;endFill=0;exitX=0.375;exitY=1;exitDx=10;exitDy=0;exitPerimeter=0;strokeWidth=2;fontSize=16;" edge="1" parent="1" source="cwxz73lgNzCHPHYkA8Ay-1">
          <mxGeometry relative="1" as="geometry">
            <mxPoint x="398" y="371" as="sourcePoint" />
            <mxPoint x="288" y="370.50000000000006" as="targetPoint" />
          </mxGeometry>
        </mxCell>
        <mxCell id="cwxz73lgNzCHPHYkA8Ay-1" value="Mux" style="shadow=0;dashed=0;align=center;html=1;strokeWidth=2;shape=mxgraph.electrical.abstract.mux2;whiteSpace=wrap;fontSize=16;" vertex="1" parent="1">
          <mxGeometry x="359" y="251" width="80" height="120" as="geometry" />
        </mxCell>
        <mxCell id="cwxz73lgNzCHPHYkA8Ay-6" value="sel" style="text;html=1;align=center;verticalAlign=middle;resizable=0;points=[];autosize=1;strokeColor=none;fillColor=none;strokeWidth=2;fontSize=10;" vertex="1" parent="1">
          <mxGeometry x="378" y="329" width="40" height="30" as="geometry" />
        </mxCell>
        <mxCell id="cwxz73lgNzCHPHYkA8Ay-12" value="top" style="text;html=1;align=center;verticalAlign=middle;resizable=0;points=[];autosize=1;strokeColor=none;fillColor=none;strokeWidth=2;fontSize=16;" vertex="1" parent="1">
          <mxGeometry x="287" y="231" width="50" height="30" as="geometry" />
        </mxCell>
        <mxCell id="cwxz73lgNzCHPHYkA8Ay-13" value="a" style="text;strokeColor=none;align=center;fillColor=none;html=1;verticalAlign=middle;whiteSpace=wrap;rounded=0;strokeWidth=2;fontSize=16;" vertex="1" parent="1">
          <mxGeometry x="232" y="264" width="60" height="30" as="geometry" />
        </mxCell>
        <mxCell id="cwxz73lgNzCHPHYkA8Ay-14" value="b" style="text;strokeColor=none;align=center;fillColor=none;html=1;verticalAlign=middle;whiteSpace=wrap;rounded=0;strokeWidth=2;fontSize=16;" vertex="1" parent="1">
          <mxGeometry x="232" y="316" width="60" height="30" as="geometry" />
        </mxCell>
        <mxCell id="cwxz73lgNzCHPHYkA8Ay-15" value="s" style="text;strokeColor=none;align=center;fillColor=none;html=1;verticalAlign=middle;whiteSpace=wrap;rounded=0;strokeWidth=2;fontSize=16;" vertex="1" parent="1">
          <mxGeometry x="232" y="356" width="60" height="30" as="geometry" />
        </mxCell>
        <mxCell id="cwxz73lgNzCHPHYkA8Ay-16" value="out1" style="text;strokeColor=none;align=center;fillColor=none;html=1;verticalAlign=middle;whiteSpace=wrap;rounded=0;strokeWidth=2;fontSize=16;" vertex="1" parent="1">
          <mxGeometry x="488" y="292" width="60" height="30" as="geometry" />
        </mxCell>
        <mxCell id="cwxz73lgNzCHPHYkA8Ay-17" value="&lt;b&gt;Fig 10.7 Synthesized Circuit for the given Verilog Code (with an if-else statement)&lt;/b&gt;" style="text;html=1;align=center;verticalAlign=middle;resizable=0;points=[];autosize=1;strokeColor=none;fillColor=none;" vertex="1" parent="1">
          <mxGeometry x="150" y="154" width="480" height="26" as="geometry" />
        </mxCell>
      </root>
    </mxGraphModel>
  </diagram>
</mxfile>
